<svg xmlns="http://www.w3.org/2000/svg" viewBox="0 4 109 100" width='129' height='132'>
        <ellipse xmlns="http://www.w3.org/2000/svg" cx="53.189" cy="54.815" fill="#9D1634" rx="53.189" ry="54.815"/>
        <ellipse xmlns="http://www.w3.org/2000/svg" cx="53.189" cy="52.385" fill="#DB2E4D" rx="53.189" ry="52.385"/>
        <g xmlns="http://www.w3.org/2000/svg" transform="translate(12.357 12.421)">
          <ellipse cx="40.832" cy="38.5" fill="#BABFD4" rx="40.832" ry="41.044"/>
          <ellipse cx="40.832" cy="42.5" fill="#E1E4ED" rx="40.832" ry="41.044"/>
          <path fill="#3B4262" d="M57.179 35.15c-.475-5.997-7.208-5.385-7.208-5.385-2.842-5.01-7.281-1.381-7.281-1.381-3.41-4.911-7.687-.36-7.687-.36-7.373-.796-7.087 5.234-7.087 5.234-.173 1.917 1.04 7.847 1.04 7.847-1.094-3.418-3.467-.581-3.467-.581-2.917 4.502-.721 6.967-.721 6.967 3.947 4.626 12.357 10.18 12.357 10.18 3.046 1.745 1.757 3.3 1.757 3.3l18.42-3.044.424-3.494c2.8-8.472-.547-19.284-.547-19.284z"/>
        </g>
      </svg>