<svg xmlns="http://www.w3.org/2000/svg" viewBox="0 4 109 100" width='129' height='132'>
        <ellipse xmlns="http://www.w3.org/2000/svg" cx="53.189" cy="54.815" fill="#C76C1B" rx="53.189" ry="54.815"/>
        <ellipse xmlns="http://www.w3.org/2000/svg" cx="53.189" cy="52.385" fill="#EB9F0E" rx="53.189" ry="52.385"/>
        <g xmlns="http://www.w3.org/2000/svg" transform="translate(12.357 12.421)">
          <ellipse cx="40.832" cy="38.5" fill="#BABFD4" rx="40.832" ry="41.044"/>
          <ellipse cx="40.832" cy="42.5" fill="#E1E4ED" rx="40.832" ry="41.044"/>
          <path fill="#3B4262" d="M30.455 40.692l4.451-6.234c-1.85-.307-5.248-.375-8.031 2.397-4.388 4.37-6.165 13.809-6.535 16.093l11.15 11.105c2.008-.17 10.896-1.353 19.46-9.881.09-.184 2.177-1.72.471-3.418-.814-.81-2.162-.796-2.993.033a1.051 1.051 0 01-1.497.015 1.04 1.04 0 01.015-1.49l3.026-3.014c1.538-1.532.089-4.116-2.058-3.495l-2.477 2.112a1.065 1.065 0 01-1.497-.103c-.384-.443-.302-1.114.135-1.492 8.654-7.562 7.39-6.65 12.958-11.848 2.08-1.725-.536-4.776-2.586-3.03L40.978 40.506a1.051 1.051 0 01-1.378-.015c-.445-.383-.455-.934-.164-1.37l9.395-14.545c1.373-1.852-1.33-3.91-2.776-2.042L32.164 41.881a1.05 1.05 0 01-1.47.255 1.02 1.02 0 01-.24-1.444z"/>
        </g>
      </svg>
